<svg xmlns="http://www.w3.org/2000/svg" xmlns:xlink="http://www.w3.org/1999/xlink" class="reftest-wait" onload="setTimeAndSnapshot(1, true)"><script type="text/javascript" xlink:href="../smil-util.js"/><g><path fill="#00f" d="M-2 50h4v -90h4l -6 -10 -6 10h4z" transform="translate(50 50) rotate(90)"><animateTransform fill="freeze" attributeName="transform" dur="4s" from="0" to="0" type="rotate"/></path></g><g><path fill="#00f" d="M-2 50h4v -90h4l -6 -10 -6 10h4z" transform="translate(150 50)"><animateTransform fill="freeze" attributeName="transform" dur="1s" from="0" to="90" type="rotate"/></path></g><g><path fill="#00f" d="M-2 50h4v -90h4l -6 -10 -6 10h4z" transform="translate(250 50)"><animateTransform fill="freeze" attributeName="transform" dur="2s" from="0" to="180" type="rotate"/></path></g><g><path fill="#00f" d="M-2 50h4v -90h4l -6 -10 -6 10h4z" transform="translate(50 150)"><animateTransform fill="freeze" attributeName="transform" dur="3s" from="0" to="270" type="rotate"/></path></g><g><path fill="#00f" d="M-2 50h4v -90h4l -6 -10 -6 10h4z" transform="translate(150 150)"><animateTransform fill="freeze" attributeName="transform" dur="4s" from="0" to="360" type="rotate"/></path></g><g><path fill="#00f" d="M-2 50h4v -90h4l -6 -10 -6 10h4z" transform="translate(250 150)"><animateTransform fill="freeze" attributeName="transform" dur="6s" from="0" to="540" type="rotate"/></path></g><g><path fill="#00f" d="M-2 50h4v -90h4l -6 -10 -6 10h4z" transform="translate(50 250)"><animateTransform fill="freeze" attributeName="transform" dur="40s" from="0" to="3600" type="rotate"/></path></g><g><path fill="#00f" d="M-2 50h4v -90h4l -6 -10 -6 10h4z" transform="translate(150 250)"><animateTransform fill="freeze" attributeName="transform" dur="1s" from="0" to="-270" type="rotate"/></path></g><g><path fill="#00f" d="M-2 50h4v -90h4l -6 -10 -6 10h4z" transform="translate(250 250)"><animateTransform fill="freeze" attributeName="transform" dur="2s" from="0" to="-540" type="rotate"/></path></g></svg>