<svg xmlns="http://www.w3.org/2000/svg"><filter id="f1" width="100%" height="100%" x="0%" y="0%" filterUnits="objectBoundingBox" primitiveUnits="objectBoundingBox"><feFlood flood-color="red" result="flood"/><feBlend width="80%" height="80%" x="10%" y="10%" in="SourceGraphic" in2="flood" mode="normal"/></filter><rect width="100" height="100" x="0" y="0" fill="#0f0" filter="url(#f1)"/><filter id="f2" width="100%" height="100%" x="0%" y="0%" filterUnits="objectBoundingBox" primitiveUnits="objectBoundingBox"><feFlood flood-color="red" result="flood"/><feBlend width="80%" height="80%" x="10%" y="10%" in="SourceGraphic" in2="flood" mode="multiply"/></filter><rect width="100" height="100" x="100" y="0" fill="#0f0" filter="url(#f2)"/><filter id="f3" width="100%" height="100%" x="0%" y="0%" filterUnits="objectBoundingBox" primitiveUnits="objectBoundingBox"><feFlood flood-color="red" result="flood"/><feBlend width="80%" height="80%" x="10%" y="10%" in="SourceGraphic" in2="flood" mode="screen"/></filter><rect width="100" height="100" x="200" y="0" fill="#0f0" filter="url(#f3)"/><filter id="f4" width="100%" height="100%" x="0%" y="0%" filterUnits="objectBoundingBox" primitiveUnits="objectBoundingBox"><feFlood flood-color="red" result="flood"/><feBlend width="80%" height="80%" x="10%" y="10%" in="SourceGraphic" in2="flood" mode="darken"/></filter><rect width="100" height="100" x="300" y="0" fill="#0f0" filter="url(#f4)"/><filter id="f5" width="100%" height="100%" x="0%" y="0%" filterUnits="objectBoundingBox" primitiveUnits="objectBoundingBox"><feFlood flood-color="red" result="flood"/><feBlend width="80%" height="80%" x="10%" y="10%" in="SourceGraphic" in2="flood" mode="lighten"/></filter><rect width="100" height="100" x="400" y="0" fill="#0f0" filter="url(#f5)"/></svg>